#usda 1.0
(
    defaultPrim = "SofaCorner"
    metersPerUnit = 1
    upAxis = "Z"
)

def Xform "SofaCorner" (
    kind = "component"
)
{
    custom string cbnu:furnitureType = "continuous armless L-shaped dark reddish-brown leather bench sofa"
    custom bool cbnu:hasArmrests = false
    custom bool cbnu:continuousJunctions = true
    custom string cbnu:frontDirections = "local +Y and local -X"
    custom string cbnu:surfaceConstruction = "one beveled SofaUnified render mesh with non-overlapping base, seat and back topology"
    custom string cbnu:visibleGeometryPolicy = "only SofaUnified"
    custom string cbnu:cushionStyle = "soft beveled upholstery with readable seat and back boundaries"
    custom double cbnu:returnLength = 2.71
    custom double cbnu:returnTrim = 0.30

    def Scope "Materials" (
        prepend references = @../materials/furniture/brown_sofa_material.usda@
    )
    {
    }

    def Material "DarkReddishBrownLeather" (
        prepend references = @../materials/furniture/dark_reddish_brown_leather_material.usda@
    )
    {
    }

    def Cube "CornerBase" (
        prepend apiSchemas = ["PhysicsCollisionAPI"]
    )
    {
        bool physics:collisionEnabled = true
        token visibility = "invisible"
        rel material:binding = </SofaCorner/Materials/BrownLeather>
        double size = 1
        double3 xformOp:scale = (0.82, 0.82, 0.34)
        double3 xformOp:translate = (0, 0, 0.23)
        uniform token[] xformOpOrder = ["xformOp:translate", "xformOp:scale"]
    }

    def Cube "LongBase" (
        prepend apiSchemas = ["PhysicsCollisionAPI"]
    )
    {
        bool physics:collisionEnabled = true
        token visibility = "invisible"
        rel material:binding = </SofaCorner/Materials/BrownLeather>
        double size = 1
        double3 xformOp:scale = (2.54, 0.82, 0.34)
        double3 xformOp:translate = (1.27, 0, 0.23)
        uniform token[] xformOpOrder = ["xformOp:translate", "xformOp:scale"]
    }

    def Cube "ReturnBase" (
        prepend apiSchemas = ["PhysicsCollisionAPI"]
    )
    {
        bool physics:collisionEnabled = true
        token visibility = "invisible"
        rel material:binding = </SofaCorner/Materials/BrownLeather>
        double size = 1
        double3 xformOp:scale = (0.82, 2.71, 0.34)
        double3 xformOp:translate = (0, -1.355, 0.23)
        uniform token[] xformOpOrder = ["xformOp:translate", "xformOp:scale"]
    }

    def Capsule "LongSeatContinuous"
    {
        token visibility = "invisible"
        token axis = "X"
        rel material:binding = </SofaCorner/Materials/BrownLeatherHighlight>
        double height = 2.26
        double radius = 0.14
        double3 xformOp:scale = (1, 2.05, 0.62)
        double3 xformOp:translate = (1.27, 0.06, 0.47)
        uniform token[] xformOpOrder = ["xformOp:translate", "xformOp:scale"]
    }

    def Capsule "ReturnSeatContinuous"
    {
        token visibility = "invisible"
        token axis = "Y"
        rel material:binding = </SofaCorner/Materials/BrownLeatherHighlight>
        double height = 2.43
        double radius = 0.14
        double3 xformOp:scale = (2.05, 1, 0.62)
        double3 xformOp:translate = (-0.06, -1.355, 0.47)
        uniform token[] xformOpOrder = ["xformOp:translate", "xformOp:scale"]
    }

    def Cube "LongBack" (
        prepend apiSchemas = ["PhysicsCollisionAPI"]
    )
    {
        bool physics:collisionEnabled = true
        token visibility = "invisible"
        rel material:binding = </SofaCorner/Materials/BrownLeather>
        double size = 1
        double3 xformOp:scale = (2.95, 0.16, 0.72)
        double3 xformOp:translate = (1.065, -0.33, 0.63)
        uniform token[] xformOpOrder = ["xformOp:translate", "xformOp:scale"]
    }

    def Cube "ReturnBack" (
        prepend apiSchemas = ["PhysicsCollisionAPI"]
    )
    {
        bool physics:collisionEnabled = true
        token visibility = "invisible"
        rel material:binding = </SofaCorner/Materials/BrownLeather>
        double size = 1
        double3 xformOp:scale = (0.16, 3.12, 0.72)
        double3 xformOp:translate = (0.33, -1.15, 0.63)
        uniform token[] xformOpOrder = ["xformOp:translate", "xformOp:scale"]
    }

    def Capsule "LongBackCushionContinuous"
    {
        token visibility = "invisible"
        token axis = "X"
        rel material:binding = </SofaCorner/Materials/BrownLeatherHighlight>
        double height = 2.65
        double radius = 0.15
        double3 xformOp:scale = (1, 0.72, 1.52)
        double3 xformOp:translate = (1.065, -0.205, 0.68)
        uniform token[] xformOpOrder = ["xformOp:translate", "xformOp:scale"]
    }

    def Capsule "ReturnBackCushionContinuous"
    {
        token visibility = "invisible"
        token axis = "Y"
        rel material:binding = </SofaCorner/Materials/BrownLeatherHighlight>
        double height = 2.82
        double radius = 0.15
        double3 xformOp:scale = (0.72, 1, 1.52)
        double3 xformOp:translate = (0.205, -1.15, 0.68)
        uniform token[] xformOpOrder = ["xformOp:translate", "xformOp:scale"]
    }

    def Sphere "SeatCornerBlend"
    {
        token visibility = "invisible"
        rel material:binding = </SofaCorner/Materials/BrownLeatherHighlight>
        double radius = 1
        double3 xformOp:scale = (0.300, 0.300, 0.100)
        double3 xformOp:translate = (0.080, -0.080, 0.470)
        uniform token[] xformOpOrder = ["xformOp:translate", "xformOp:scale"]
    }

    def Sphere "BackCornerBlend"
    {
        token visibility = "invisible"
        rel material:binding = </SofaCorner/Materials/BrownLeatherHighlight>
        double radius = 1
        double3 xformOp:scale = (0.165, 0.165, 0.230)
        double3 xformOp:translate = (0.205, -0.205, 0.680)
        uniform token[] xformOpOrder = ["xformOp:translate", "xformOp:scale"]
    }

    # BEGIN GENERATED SOFA_UNIFIED
    def Mesh "SofaUnified" (
        prepend apiSchemas = ["MaterialBindingAPI"]
    )
    {
        token visibility = "inherited"
        bool doubleSided = true
        int[] faceVertexCounts = [
            3, 3, 3, 3, 3, 3, 3, 3, 3, 3, 3, 3, 3, 3, 3, 3,
            3, 3, 3, 3, 3, 3, 4, 4, 4, 4, 4, 4, 4, 4, 4, 4,
            4, 4, 4, 4, 4, 4, 4, 4, 4, 4, 4, 4, 4, 4, 4, 4,
            4, 4, 4, 4, 4, 4, 4, 4, 4, 4, 4, 4, 4, 3, 3, 3,
            3, 3, 3, 3, 3, 3, 3, 3, 3, 3, 3, 3, 3, 3, 3, 3,
            3, 3, 3, 3, 3, 4, 4, 4, 4, 4, 4, 4, 4, 4, 4, 4,
            4, 4, 4, 4, 4, 4, 4, 4, 4, 4, 4, 4, 4, 4, 4, 4,
            4, 4, 4, 4, 4, 4, 4, 4, 4, 4, 4, 4, 4, 4, 4, 3,
            3, 3, 3, 3, 3, 3, 3, 3, 3, 3, 3, 3, 3, 3, 3, 3,
            3, 3, 3, 3, 3, 3, 3, 4, 4, 4, 4, 4, 4, 4, 4, 4,
            4, 4, 4, 4, 4, 4, 4, 4, 4, 4, 4, 4, 4, 4, 4, 4,
            4, 4, 4, 4, 4, 4, 4, 4, 4, 4, 4, 4, 4, 4, 4, 4,
            4
        ]
        int[] faceVertexIndices = [
            1, 0, 12, 2, 1, 12, 3, 2, 12, 4, 3, 12, 5, 4, 12, 6,
            5, 12, 7, 6, 12, 8, 7, 12, 9, 8, 12, 10, 9, 12, 12, 11,
            10, 51, 39, 40, 51, 40, 41, 51, 41, 42, 51, 42, 43, 51, 43, 44,
            51, 44, 45, 51, 45, 46, 51, 46, 47, 51, 47, 48, 51, 48, 49, 49,
            50, 51, 0, 1, 14, 13, 1, 2, 15, 14, 2, 3, 16, 15, 3, 4,
            17, 16, 4, 5, 18, 17, 5, 6, 19, 18, 6, 7, 20, 19, 7, 8,
            21, 20, 8, 9, 22, 21, 9, 10, 23, 22, 10, 11, 24, 23, 11, 12,
            25, 24, 12, 0, 13, 25, 13, 14, 27, 26, 14, 15, 28, 27, 15, 16,
            29, 28, 16, 17, 30, 29, 17, 18, 31, 30, 18, 19, 32, 31, 19, 20,
            33, 32, 20, 21, 34, 33, 21, 22, 35, 34, 22, 23, 36, 35, 23, 24,
            37, 36, 24, 25, 38, 37, 25, 13, 26, 38, 26, 27, 40, 39, 27, 28,
            41, 40, 28, 29, 42, 41, 29, 30, 43, 42, 30, 31, 44, 43, 31, 32,
            45, 44, 32, 33, 46, 45, 33, 34, 47, 46, 34, 35, 48, 47, 35, 36,
            49, 48, 36, 37, 50, 49, 37, 38, 51, 50, 38, 26, 39, 51, 53, 52,
            65, 54, 53, 65, 55, 54, 65, 56, 55, 65, 57, 56, 65, 58, 57, 65,
            59, 58, 65, 60, 59, 65, 61, 60, 65, 62, 61, 65, 63, 62, 65, 65,
            64, 63, 107, 94, 95, 107, 95, 96, 107, 96, 97, 107, 97, 98, 107, 98,
            99, 107, 99, 100, 107, 100, 101, 107, 101, 102, 107, 102, 103, 107, 103, 104,
            107, 104, 105, 105, 106, 107, 52, 53, 67, 66, 53, 54, 68, 67, 54, 55,
            69, 68, 55, 56, 70, 69, 56, 57, 71, 70, 57, 58, 72, 71, 58, 59,
            73, 72, 59, 60, 74, 73, 60, 61, 75, 74, 61, 62, 76, 75, 62, 63,
            77, 76, 63, 64, 78, 77, 64, 65, 79, 78, 65, 52, 66, 79, 66, 67,
            81, 80, 67, 68, 82, 81, 68, 69, 83, 82, 69, 70, 84, 83, 70, 71,
            85, 84, 71, 72, 86, 85, 72, 73, 87, 86, 73, 74, 88, 87, 74, 75,
            89, 88, 75, 76, 90, 89, 76, 77, 91, 90, 77, 78, 92, 91, 78, 79,
            93, 92, 79, 66, 80, 93, 80, 81, 95, 94, 81, 82, 96, 95, 82, 83,
            97, 96, 83, 84, 98, 97, 84, 85, 99, 98, 85, 86, 100, 99, 86, 87,
            101, 100, 87, 88, 102, 101, 88, 89, 103, 102, 89, 90, 104, 103, 90, 91,
            105, 104, 91, 92, 106, 105, 92, 93, 107, 106, 93, 80, 94, 107, 109, 108,
            121, 110, 109, 121, 111, 110, 121, 112, 111, 121, 115, 114, 113, 116, 115, 113,
            116, 113, 112, 116, 112, 121, 117, 116, 121, 118, 117, 121, 119, 118, 121, 121,
            120, 119, 163, 150, 151, 163, 151, 152, 163, 152, 153, 163, 153, 154, 155, 156,
            157, 155, 157, 158, 154, 155, 158, 163, 154, 158, 163, 158, 159, 163, 159, 160,
            163, 160, 161, 161, 162, 163, 108, 109, 123, 122, 109, 110, 124, 123, 110, 111,
            125, 124, 111, 112, 126, 125, 112, 113, 127, 126, 113, 114, 128, 127, 114, 115,
            129, 128, 115, 116, 130, 129, 116, 117, 131, 130, 117, 118, 132, 131, 118, 119,
            133, 132, 119, 120, 134, 133, 120, 121, 135, 134, 121, 108, 122, 135, 122, 123,
            137, 136, 123, 124, 138, 137, 124, 125, 139, 138, 125, 126, 140, 139, 126, 127,
            141, 140, 127, 128, 142, 141, 128, 129, 143, 142, 129, 130, 144, 143, 130, 131,
            145, 144, 131, 132, 146, 145, 132, 133, 147, 146, 133, 134, 148, 147, 134, 135,
            149, 148, 135, 122, 136, 149, 136, 137, 151, 150, 137, 138, 152, 151, 138, 139,
            153, 152, 139, 140, 154, 153, 140, 141, 155, 154, 141, 142, 156, 155, 142, 143,
            157, 156, 143, 144, 158, 157, 144, 145, 159, 158, 145, 146, 160, 159, 146, 147,
            161, 160, 147, 148, 162, 161, 148, 149, 163, 162, 149, 136, 150, 163
        ]
        rel material:binding = </SofaCorner/DarkReddishBrownLeather>
        point3f[] points = [
            (-0.3850, -2.6850, 0.0800), (0.3850, -2.6850, 0.0800), (0.3850, -0.5462, 0.0800), (0.4050, -0.4827, 0.0800),
            (0.4827, -0.4050, 0.0800), (0.5462, -0.3850, 0.0800), (2.5150, -0.3850, 0.0800), (2.5150, 0.3850, 0.0800),
            (0.0024, 0.3850, 0.0800), (-0.1473, 0.3554, 0.0800), (-0.2720, 0.2720, 0.0800), (-0.3554, 0.1473, 0.0800),
            (-0.3850, -0.0024, 0.0800), (-0.4100, -2.7100, 0.1150), (0.4100, -2.7100, 0.1150), (0.4100, -0.5500, 0.1150),
            (0.4270, -0.4960, 0.1150), (0.4960, -0.4270, 0.1150), (0.5500, -0.4100, 0.1150), (2.5400, -0.4100, 0.1150),
            (2.5400, 0.4100, 0.1150), (0.0000, 0.4100, 0.1150), (-0.1570, 0.3790, 0.1150), (-0.2900, 0.2900, 0.1150),
            (-0.3790, 0.1570, 0.1150), (-0.4100, 0.0000, 0.1150), (-0.4100, -2.7100, 0.3350), (0.4100, -2.7100, 0.3350),
            (0.4100, -0.5500, 0.3350), (0.4270, -0.4960, 0.3350), (0.4960, -0.4270, 0.3350), (0.5500, -0.4100, 0.3350),
            (2.5400, -0.4100, 0.3350), (2.5400, 0.4100, 0.3350), (0.0000, 0.4100, 0.3350), (-0.1570, 0.3790, 0.3350),
            (-0.2900, 0.2900, 0.3350), (-0.3790, 0.1570, 0.3350), (-0.4100, 0.0000, 0.3350), (-0.3850, -2.6850, 0.3700),
            (0.3850, -2.6850, 0.3700), (0.3850, -0.5462, 0.3700), (0.4050, -0.4827, 0.3700), (0.4827, -0.4050, 0.3700),
            (0.5462, -0.3850, 0.3700), (2.5150, -0.3850, 0.3700), (2.5150, 0.3850, 0.3700), (0.0024, 0.3850, 0.3700),
            (-0.1473, 0.3554, 0.3700), (-0.2720, 0.2720, 0.3700), (-0.3554, 0.1473, 0.3700), (-0.3850, -0.0024, 0.3700),
            (-0.3200, -2.6800, 0.3700), (0.2000, -2.6800, 0.3700), (0.2000, -0.4470, 0.3700), (0.2194, -0.3510, 0.3700),
            (0.3029, -0.2697, 0.3700), (0.3923, -0.2197, 0.3700), (0.4445, -0.2000, 0.3700), (2.5100, -0.2000, 0.3700),
            (2.5100, 0.3200, 0.3700), (0.0030, 0.3200, 0.3700), (-0.1222, 0.2948, 0.3700), (-0.2254, 0.2254, 0.3700),
            (-0.2948, 0.1222, 0.3700), (-0.3200, -0.0030, 0.3700), (-0.3500, -2.7100, 0.4150), (0.2300, -2.7100, 0.4150),
            (0.2300, -0.4500, 0.4150), (0.2470, -0.3660, 0.4150), (0.3210, -0.2940, 0.4150), (0.4050, -0.2470, 0.4150),
            (0.4500, -0.2300, 0.4150), (2.5400, -0.2300, 0.4150), (2.5400, 0.3500, 0.4150), (0.0000, 0.3500, 0.4150),
            (-0.1340, 0.3230, 0.4150), (-0.2470, 0.2470, 0.4150), (-0.3230, 0.1340, 0.4150), (-0.3500, 0.0000, 0.4150),
            (-0.3500, -2.7100, 0.5350), (0.2300, -2.7100, 0.5350), (0.2300, -0.4500, 0.5350), (0.2470, -0.3660, 0.5350),
            (0.3210, -0.2940, 0.5350), (0.4050, -0.2470, 0.5350), (0.4500, -0.2300, 0.5350), (2.5400, -0.2300, 0.5350),
            (2.5400, 0.3500, 0.5350), (0.0000, 0.3500, 0.5350), (-0.1340, 0.3230, 0.5350), (-0.2470, 0.2470, 0.5350),
            (-0.3230, 0.1340, 0.5350), (-0.3500, 0.0000, 0.5350), (-0.3200, -2.6800, 0.5800), (0.2000, -2.6800, 0.5800),
            (0.2000, -0.4470, 0.5800), (0.2194, -0.3510, 0.5800), (0.3029, -0.2697, 0.5800), (0.3923, -0.2197, 0.5800),
            (0.4445, -0.2000, 0.5800), (2.5100, -0.2000, 0.5800), (2.5100, 0.3200, 0.5800), (0.0030, 0.3200, 0.5800),
            (-0.1222, 0.2948, 0.5800), (-0.2254, 0.2254, 0.5800), (-0.2948, 0.1222, 0.5800), (-0.3200, -0.0030, 0.5800),
            (0.2700, -2.6900, 0.3700), (0.3900, -2.6900, 0.3700), (0.3900, -0.4565, 0.3700), (0.4007, -0.4270, 0.3700),
            (0.4270, -0.4007, 0.3700), (0.4565, -0.3900, 0.3700), (2.5200, -0.3900, 0.3700), (2.5200, -0.2700, 0.3700),
            (0.4635, -0.2700, 0.3700), (0.4270, -0.2833, 0.3700), (0.4051, -0.3051, 0.3700), (0.3551, -0.3551, 0.3700),
            (0.2833, -0.4270, 0.3700), (0.2700, -0.4635, 0.3700), (0.2500, -2.7100, 0.4250), (0.4100, -2.7100, 0.4250),
            (0.4100, -0.4600, 0.4250), (0.4180, -0.4380, 0.4250), (0.4380, -0.4180, 0.4250), (0.4600, -0.4100, 0.4250),
            (2.5400, -0.4100, 0.4250), (2.5400, -0.2500, 0.4250), (0.4600, -0.2500, 0.4250), (0.4160, -0.2660, 0.4250),
            (0.3660, -0.3160, 0.4250), (0.3160, -0.3660, 0.4250), (0.2660, -0.4160, 0.4250), (0.2500, -0.4600, 0.4250),
            (0.2500, -2.7100, 0.9250), (0.4100, -2.7100, 0.9250), (0.4100, -0.4600, 0.9250), (0.4180, -0.4380, 0.9250),
            (0.4380, -0.4180, 0.9250), (0.4600, -0.4100, 0.9250), (2.5400, -0.4100, 0.9250), (2.5400, -0.2500, 0.9250),
            (0.4600, -0.2500, 0.9250), (0.4160, -0.2660, 0.9250), (0.3660, -0.3160, 0.9250), (0.3160, -0.3660, 0.9250),
            (0.2660, -0.4160, 0.9250), (0.2500, -0.4600, 0.9250), (0.2700, -2.6900, 0.9800), (0.3900, -2.6900, 0.9800),
            (0.3900, -0.4565, 0.9800), (0.4007, -0.4270, 0.9800), (0.4270, -0.4007, 0.9800), (0.4565, -0.3900, 0.9800),
            (2.5200, -0.3900, 0.9800), (2.5200, -0.2700, 0.9800), (0.4635, -0.2700, 0.9800), (0.4270, -0.2833, 0.9800),
            (0.4051, -0.3051, 0.9800), (0.3551, -0.3551, 0.9800), (0.2833, -0.4270, 0.9800), (0.2700, -0.4635, 0.9800)
        ]
        float3[] primvars:displayColor = [(0.09, 0.055, 0.05)]
        uniform token subdivisionScheme = "none"
    }
    # END GENERATED SOFA_UNIFIED
    def Capsule "LongSeatPlush"
    {
        token visibility = "invisible"
        token axis = "X"
        rel material:binding = </SofaCorner/Materials/BrownLeatherHighlight>
        double height = 2.20
        double radius = 0.18
        double3 xformOp:scale = (1, 1.55, 0.82)
        double3 xformOp:translate = (1.29, 0.05, 0.50)
        uniform token[] xformOpOrder = ["xformOp:translate", "xformOp:scale"]
    }

    def Capsule "ReturnSeatPlush"
    {
        token visibility = "invisible"
        token axis = "Y"
        rel material:binding = </SofaCorner/Materials/BrownLeatherHighlight>
        double height = 2.38
        double radius = 0.18
        double3 xformOp:scale = (1.55, 1, 0.82)
        double3 xformOp:translate = (-0.05, -1.37, 0.50)
        uniform token[] xformOpOrder = ["xformOp:translate", "xformOp:scale"]
    }

    def Sphere "SeatPlushJunction"
    {
        token visibility = "invisible"
        rel material:binding = </SofaCorner/Materials/BrownLeatherHighlight>
        double radius = 1
        double3 xformOp:scale = (0.34, 0.34, 0.15)
        double3 xformOp:translate = (0.08, -0.08, 0.50)
        uniform token[] xformOpOrder = ["xformOp:translate", "xformOp:scale"]
    }

    def Capsule "LongBackPlush"
    {
        token visibility = "invisible"
        token axis = "X"
        rel material:binding = </SofaCorner/Materials/BrownLeatherHighlight>
        double height = 2.62
        double radius = 0.18
        double3 xformOp:scale = (1, 0.78, 1.62)
        double3 xformOp:translate = (1.08, -0.20, 0.72)
        uniform token[] xformOpOrder = ["xformOp:translate", "xformOp:scale"]
    }

    def Capsule "ReturnBackPlush"
    {
        token visibility = "invisible"
        token axis = "Y"
        rel material:binding = </SofaCorner/Materials/BrownLeatherHighlight>
        double height = 2.78
        double radius = 0.18
        double3 xformOp:scale = (0.78, 1, 1.62)
        double3 xformOp:translate = (0.20, -1.16, 0.72)
        uniform token[] xformOpOrder = ["xformOp:translate", "xformOp:scale"]
    }

    def Sphere "BackPlushJunction"
    {
        token visibility = "invisible"
        rel material:binding = </SofaCorner/Materials/BrownLeatherHighlight>
        double radius = 1
        double3 xformOp:scale = (0.22, 0.22, 0.30)
        double3 xformOp:translate = (0.20, -0.20, 0.72)
        uniform token[] xformOpOrder = ["xformOp:translate", "xformOp:scale"]
    }

    def Sphere "LongButton_01"
    {
        token visibility = "invisible"
        rel material:binding = </SofaCorner/Materials/BrownPiping>
        double radius = 1
        double3 xformOp:scale = (0.027, 0.018, 0.027)
        double3 xformOp:translate = (0.43, -0.082, 0.69)
        uniform token[] xformOpOrder = ["xformOp:translate", "xformOp:scale"]
    }

    def Sphere "LongButton_02"
    {
        token visibility = "invisible"
        rel material:binding = </SofaCorner/Materials/BrownPiping>
        double radius = 1
        double3 xformOp:scale = (0.027, 0.018, 0.027)
        double3 xformOp:translate = (1.25, -0.082, 0.69)
        uniform token[] xformOpOrder = ["xformOp:translate", "xformOp:scale"]
    }

    def Sphere "LongButton_03"
    {
        token visibility = "invisible"
        rel material:binding = </SofaCorner/Materials/BrownPiping>
        double radius = 1
        double3 xformOp:scale = (0.027, 0.018, 0.027)
        double3 xformOp:translate = (2.07, -0.082, 0.69)
        uniform token[] xformOpOrder = ["xformOp:translate", "xformOp:scale"]
    }

    def Cylinder "CornerFoot"
    {
        token visibility = "invisible"
        token axis = "Z"
        rel material:binding = </SofaCorner/Materials/BronzeFeet>
        double height = 0.10
        double radius = 0.035
        double3 xformOp:translate = (-0.24, 0.22, 0.05)
        uniform token[] xformOpOrder = ["xformOp:translate"]
    }

    def Cylinder "LongEndFoot"
    {
        token visibility = "invisible"
        token axis = "Z"
        rel material:binding = </SofaCorner/Materials/BronzeFeet>
        double height = 0.10
        double radius = 0.035
        double3 xformOp:translate = (2.42, 0.22, 0.05)
        uniform token[] xformOpOrder = ["xformOp:translate"]
    }

    def Cylinder "ReturnEndFoot"
    {
        token visibility = "invisible"
        token axis = "Z"
        rel material:binding = </SofaCorner/Materials/BronzeFeet>
        double height = 0.10
        double radius = 0.035
        double3 xformOp:translate = (-0.22, -2.58, 0.05)
        uniform token[] xformOpOrder = ["xformOp:translate"]
    }
}
